<svg width="26" height="26" viewBox="0 0 26 26" fill="none" xmlns="http://www.w3.org/2000/svg">
<path d="M1.62493 1.76915C-0.418236 3.8914 -6.89626e-05 6.14582 -6.89626e-05 12.9946C-6.89626e-05 18.6821 -0.992402 24.3837 4.2011 25.726C5.82285 26.1431 20.1922 26.1431 21.8118 25.7238C23.9741 25.1659 25.7334 23.412 25.9739 20.3537C26.0075 19.9269 26.0075 6.06999 25.9728 5.63449C25.7172 2.3769 23.7119 0.499487 21.0697 0.119237C20.4641 0.0314873 20.3428 0.00548726 17.2358 7.05943e-05C6.21501 0.00548726 3.79918 -0.485263 1.62493 1.76915Z" fill="url(#paint0_linear_1_71)"/>
<defs>
<linearGradient id="paint0_linear_1_71" x1="1.67479" y1="24.3394" x2="25.839" y2="3.42553" gradientUnits="userSpaceOnUse">
<stop stop-color="#FFDD55"/>
<stop offset="0.5" stop-color="#FF543E"/>
<stop offset="1" stop-color="#C837AB"/>
</linearGradient>
</defs>
</svg>
